<svg xmlns="http://www.w3.org/2000/svg" width="120" height="120" id="georgia"><g fill-rule="evenodd" transform="translate(0 -932.362)"><circle cx="60" cy="992.362" r="60" fill="#50b748"></circle><path fill="#109a32" d="M116.414 1012.577a60 60 0 0 0 .576-1.582l-26.857-22.537c-.04-.034-.088-.054-.133-.08-.028-.017-.051-.038-.08-.051a.693.693 0 0 0-.277-.065c-.5 0-.8.4-.8.8 0 .108.027.215.07.316.012.031.035.056.052.086.038.066.08.128.137.181.01.011.015.027.027.037l27.285 22.895zm-22.953 29.527a60 60 0 0 0 3.836-2.742 60 60 0 0 0 4.506-3.959 60 60 0 0 0 4.088-4.389 60 60 0 0 0 3.629-4.773 60 60 0 0 0 3.134-5.113 60 60 0 0 0 2.61-5.4 60 60 0 0 0 1.107-3.036l-32.713-27.45c-.034-.028-.078-.045-.117-.067-.029-.017-.054-.036-.086-.05a.813.813 0 0 0-.312-.064c-.5 0-.8.401-.8.801 0 .108.034.214.085.314.014.03.037.051.054.079.044.067.09.13.15.185.01.009.015.021.024.03l2.914 2.445c-.009.049-.027.096-.027.146a.7.7 0 0 0 .084.315c.014.028.037.05.055.078.044.067.09.13.15.185.01.009.014.022.023.03l3.018 2.533c-.006.031-.015.062-.018.094 0 .008-.003.016-.003.025l-8.422-7.066c-.038-.032-.082-.05-.123-.075-.031-.018-.058-.04-.09-.054a.685.685 0 0 0-.274-.065c-.5 0-.8.401-.8.801a.7.7 0 0 0 .084.314c.014.03.037.051.054.079.044.067.09.13.15.185.01.009.014.021.024.03l2.916 2.447c-.009.048-.027.095-.027.144 0 .109.033.214.084.315.014.028.037.05.054.078.044.067.09.13.15.185.01.009.015.022.024.03l2.93 2.459c-.01.03-.01.06-.016.091l-.01.051-8.394-7.043c-.028-.023-.06-.036-.09-.054-.026-.017-.05-.036-.078-.05a.603.603 0 0 0-.256-.062c-.5 0-.799.401-.799.801 0 .108.034.214.084.314.015.03.037.051.055.079.044.067.09.13.15.185.01.009.014.021.024.03l2.914 2.445c-.01.049-.027.096-.027.146a.7.7 0 0 0 .084.315c.014.028.037.05.054.078.044.067.09.13.15.185.01.009.014.022.024.03l2.932 2.46c-.011.037-.014.074-.02.112-.002.016-.008.032-.01.049l-8.4-7.05c-.033-.026-.076-.042-.113-.064-.03-.017-.057-.039-.09-.052a.81.81 0 0 0-.31-.063.79.79 0 0 0-.733 1.117c.014.033.037.058.055.088.037.066.079.127.134.18.011.01.016.025.028.035l3.023 2.537c0 .015-.008.029-.008.043 0 .109.034.214.084.315.015.028.037.05.055.078.044.067.09.13.15.185.01.009.014.022.024.03l2.93 2.459a.813.813 0 0 0-.043.234c0 .129.027.243.074.344.018.04.05.068.074.103.036.053.069.108.115.149.005.004.007.011.012.015l2.945 2.471c-.001.014-.007.026-.008.041v.004l-8.398-7.047c-.034-.029-.077-.046-.117-.068-.028-.016-.053-.035-.084-.047a.813.813 0 0 0-.313-.065.788.788 0 0 0-.732 1.116c.014.032.037.057.055.088.037.065.079.127.134.18.011.01.016.025.028.034l3.039 2.551c-.005.03-.014.058-.016.088l-8.42-7.064c-.038-.033-.084-.051-.127-.077-.03-.017-.055-.039-.086-.052a.685.685 0 0 0-.275-.065.78.78 0 0 0-.795.772l-8.367-7.022h-.002l-.033-.03c-.044-.036-.1-.058-.15-.087-.04-.022-.072-.05-.114-.066a.928.928 0 0 0-.34-.067c-.4 0-.799.401-.799.801 0 .129.028.243.075.344.018.04.05.068.074.103.036.053.069.108.115.149.005.004.007.011.012.015l3.049 2.557v.002c-.008.044-.026.086-.026.13 0 .108.03.212.08.311.018.037.047.064.07.098a.91.91 0 0 0 .137.166c.01.009.014.021.024.03l2.918 2.449c-.005.024-.012.049-.014.074l-8.398-7.047c-.034-.029-.078-.046-.118-.069-.029-.016-.054-.035-.086-.048a.813.813 0 0 0-.312-.065c-.5 0-.8.401-.8.801 0 .129.027.243.073.344.019.04.05.068.075.103.036.053.068.108.115.149.005.004.007.011.012.015l2.97 2.494c-.02.065-.045.13-.045.196a.7.7 0 0 0 .08.31c.02.038.05.067.075.102.04.057.077.113.129.16.01.01.016.024.027.033l-5.397-4.527c-.033-.028-.076-.044-.115-.067-.03-.017-.055-.037-.088-.05a.81.81 0 0 0-.31-.063c-.5 0-.801.401-.801.801 0 .133.024.249.064.352.012.028.033.048.047.074a.662.662 0 0 0 .127.178c.007.005.01.015.016.021l2.978 2.5c-.013.059-.033.116-.033.176 0 .107.03.211.08.31.018.037.047.064.07.098a.91.91 0 0 0 .137.166c.01.009.014.021.024.03l2.924 2.452-.008.032-8.338-6.996c-.039-.033-.084-.051-.127-.077-.03-.017-.055-.039-.086-.052a.685.685 0 0 0-.275-.065c-.5 0-.8.401-.8.801 0 .108.034.214.085.314.014.03.037.051.054.079.044.067.09.13.15.185.01.009.015.021.024.03l2.93 2.458a.813.813 0 0 0-.043.235c0 .11.027.215.07.316.013.03.033.054.05.082a.77.77 0 0 0 .138.184c.01.01.015.025.027.035l2.936 2.463c-.003.015-.007.03-.008.045l-8.399-7.047c-.033-.028-.076-.044-.115-.067-.03-.017-.055-.037-.088-.05a.81.81 0 0 0-.31-.063c-.4 0-.801.401-.801.801 0 .129.028.243.074.344.019.04.05.068.074.103.037.053.069.108.116.149.004.004.006.011.011.015l3.034 2.545c-.001.015-.008.029-.008.043 0 .025.012.043.013.067l-8.427-7.073c-.038-.031-.082-.05-.123-.074-.031-.018-.058-.04-.09-.055a.685.685 0 0 0-.274-.064c-.5 0-.8.3-.8.8 0 .134.024.25.064.352.011.03.033.048.047.075a.655.655 0 0 0 .127.175c.006.006.009.016.015.022l2.965 2.486c-.003.03-.017.06-.017.09 0 .023.008.039.01.06l-8.422-7.066c-.04-.033-.087-.052-.131-.078-.028-.017-.053-.038-.082-.05a.686.686 0 0 0-.276-.065c-.5 0-.8.399-.8.799a.7.7 0 0 0 .084.314c.014.029.037.051.054.078.044.068.09.131.15.186.01.008.014.02.024.029l2.918 2.45c-.009.048-.03.09-.03.144 0 .129.029.243.075.344.015.032.042.054.06.084.04.06.077.12.13.166.004.004.006.011.011.015l3.031 2.545c0 .015-.007.03-.007.045 0 .023.008.039.01.06l-8.42-7.064c-.04-.034-.089-.054-.133-.08-.028-.016-.052-.038-.08-.05a.693.693 0 0 0-.278-.065c-.5 0-.799.399-.799.799 0 .109.026.215.069.316.013.032.035.056.052.086.039.066.08.128.137.182.012.01.015.027.028.037l2.933 2.46c-.005.042-.02.075-.02.12a.81.81 0 0 0 .075.344c.015.032.041.054.06.084.04.06.077.12.13.166.004.004.006.011.011.015l2.951 2.477c-.007.038-.025.074-.025.113 0 .008.003.014.004.021l-8.391-7.04c-.034-.03-.077-.046-.117-.069-.028-.016-.053-.034-.084-.047a.813.813 0 0 0-.313-.064.788.788 0 0 0-.732 1.115c.014.032.037.057.055.088.037.065.079.127.134.18.011.01.016.025.028.035l3.023 2.537c0 .016-.008.028-.008.045 0 .13.024.246.063.347.013.035.037.06.055.09a.65.65 0 0 0 .12.166c.007.006.01.016.016.022l2.961 2.484c-.003.03-.015.06-.015.09 0 .129.027.243.074.344.018.04.05.068.074.103.036.053.069.108.115.149.005.004.007.011.012.015l2.97 2.494a.682.682 0 0 0-.029.125l-8.402-7.05c-.033-.028-.076-.043-.113-.065-.03-.017-.057-.039-.09-.053a.81.81 0 0 0-.31-.062c-.5 0-.801.3-.801.8 0 .134.024.25.064.352.011.03.033.048.047.075a.655.655 0 0 0 .127.175c.006.006.009.016.015.022l3.051 2.558v.002c0 .006-.004.01-.004.016a.95.95 0 0 0 .065.35c.012.031.035.053.05.082.036.063.071.126.124.173.006.006.009.016.015.022l22.35 18.754c0 .007-.004.013-.004.02 0 .006.004.012.004.019l-8.379-7.031c-.05-.042-.11-.068-.168-.096-.025-.012-.046-.031-.072-.041a.817.817 0 0 0-.285-.053c-.5 0-.8.401-.8.801a.95.95 0 0 0 .065.35c.013.031.035.053.051.082.035.063.07.126.123.173.007.006.009.016.016.022l2.963 2.486c-.004.03-.018.054-.018.086 0 .13.028.243.074.344.019.04.05.068.074.103.037.053.069.108.116.149.004.004.006.011.011.016l3.034 2.544c-.001.017-.008.029-.008.045 0 .13.028.244.074.344.015.033.042.055.06.084.04.06.077.12.13.166.004.004.006.012.011.016l2.945 2.472c-.005.04-.021.078-.021.118 0 .109.026.215.068.316.014.032.037.057.055.088.038.065.08.127.135.18.01.01.015.025.027.035l2.953 2.476v.002a.812.812 0 0 0-.021.112c0 .006-.004.011-.004.017l-8.399-7.047c-.033-.028-.076-.044-.115-.066-.03-.017-.055-.038-.088-.05a.81.81 0 0 0-.31-.063c-.4 0-.801.4-.801.8 0 .107.03.212.08.31.018.037.047.065.07.099a.91.91 0 0 0 .137.166c.01.008.014.02.024.029l3.003 2.521c-.002.026-.013.05-.013.075 0 .108.033.214.084.314.014.029.037.051.054.078.044.068.09.131.15.186.01.008.015.02.024.029l2.93 2.459a.813.813 0 0 0 .021.586c.012.029.033.048.047.074a.66.66 0 0 0 .127.178c.007.006.01.016.016.021l43.164 36.217zm-1.773 1.166a60 60 0 0 0 .73-.42 60 60 0 0 0 1.03-.736l-48.59-40.772c-.035-.029-.08-.045-.12-.068-.028-.016-.051-.034-.082-.047a.813.813 0 0 0-.312-.064c-.4 0-.801.399-.801.799a.7.7 0 0 0 .084.314c.014.029.037.051.055.078.044.068.09.131.15.186.01.008.014.02.023.029l3.018 2.533c-.01.054-.03.106-.03.16 0 .13.029.244.075.344.013.029.036.048.053.074.04.066.084.13.14.18.004.003.005.009.008.012l44.569 37.398zm-1.961 1.123a60 60 0 0 0 1.488-.853l-46.358-38.899c-.033-.028-.076-.044-.115-.066-.03-.017-.055-.038-.088-.05a.81.81 0 0 0-.31-.063c-.4 0-.801.3-.801.8 0 .13.028.244.074.344.013.029.037.048.053.074a.77.77 0 0 0 .139.18c.003.003.006.009.01.012l45.908 38.521zm-1.924 1.104a60 60 0 0 0 1.486-.852l-47.658-39.99c-.039-.032-.084-.05-.127-.076-.03-.018-.055-.04-.086-.053a.685.685 0 0 0-.275-.064c-.5 0-.8.3-.8.8 0 .131.024.246.063.348.013.033.037.055.053.084a.653.653 0 0 0 .125.174c.006.005.008.014.014.02l47.205 39.609z" clip-rule="evenodd"></path><path fill="#fff" d="M24.943 972.162c-.5 0-.8.4-.8.8s.3.8.8.8.8-.4.8-.8-.3-.8-.8-.8zm3.3 0c-.5 0-.8.4-.8.8s.3.8.8.8c.4 0 .8-.4.8-.8s-.4-.8-.8-.8zm3.2 0c-.5 0-.8.4-.8.8s.4.8.8.8.8-.4.8-.8-.4-.8-.8-.8zm-6.5 3.2c-.5 0-.8.3-.8.8s.3.8.8.8.8-.4.8-.8-.3-.8-.8-.8zm3.3 0c-.5 0-.8.3-.8.8s.3.8.8.8c.4 0 .8-.4.8-.8s-.4-.8-.8-.8zm3.2 0c-.5 0-.8.3-.8.8s.4.8.8.8.8-.4.8-.8-.4-.8-.8-.8zm3.2 0c-.4 0-.8.3-.8.8s.4.8.8.8c.5 0 .8-.4.8-.8s-.3-.8-.8-.8zm3.3 0c-.5 0-.8.3-.8.8s.3.8.8.8.8-.4.8-.8-.4-.8-.8-.8zm9.7 3.2c-.5 0-.8.4-.8.8s.4.8.8.8.8-.4.8-.8-.4-.8-.8-.8zm-19.4 0c-.5 0-.8.4-.8.8 0 .5.3.8.8.8.4 0 .8-.4.8-.8s-.4-.8-.8-.8zm3.2 0c-.5 0-.8.4-.8.8 0 .5.4.8.8.8s.8-.4.8-.8-.4-.8-.8-.8zm3.2 0c-.4 0-.8.4-.8.8 0 .5.4.8.8.8.5 0 .8-.4.8-.8s-.3-.8-.8-.8zm3.3 0c-.5 0-.8.4-.8.8 0 .5.3.8.8.8s.8-.4.8-.8-.4-.8-.8-.8zm3.2 0c-.5 0-.8.4-.8.8 0 .5.3.8.8.8s.8-.4.8-.8-.4-.8-.8-.8zm3.2 0c-.4 0-.8.4-.8.8 0 .5.4.8.8.8.5 0 .8-.4.8-.8s-.3-.8-.8-.8zm6.5 0c-.5 0-.8.4-.8.8 0 .5.3.8.8.8s.8-.4.8-.8-.3-.8-.8-.8zm3.2 0c-.5 0-.8.4-.8.8 0 .5.4.8.8.8s.8-.4.8-.8-.3-.8-.8-.8zm3.2 0c-.4 0-.8.4-.8.8 0 .5.4.8.8.8.5 0 .9-.4.9-.8s-.4-.8-.9-.8zm-9.6 3.2c-.5 0-.8.4-.8.8 0 .5.4.8.8.8s.8-.4.8-.8-.4-.8-.8-.8zm-13 .1c-.4 0-.8.4-.8.8s.4.8.8.8c.5 0 .8-.3.8-.8s-.3-.8-.8-.8zm3.3 0c-.5 0-.8.4-.8.8s.3.8.8.8.8-.3.8-.8-.4-.8-.8-.8zm3.2 0c-.5 0-.8.4-.8.8s.3.8.8.8.8-.3.8-.8-.4-.8-.8-.8zm3.2 0c-.4 0-.8.4-.8.8s.4.8.8.8c.5 0 .8-.3.8-.8s-.3-.8-.8-.8zm6.5 0c-.5 0-.8.4-.8.8s.3.8.8.8.8-.3.8-.8-.3-.8-.8-.8zm3.2 0c-.5 0-.8.4-.8.8s.4.8.8.8.8-.3.8-.8-.3-.8-.8-.8zm3.2 0c-.4 0-.8.4-.8.8s.4.8.8.8c.5 0 .9-.3.9-.8s-.4-.8-.9-.8zm3.3 0c-.5 0-.8.4-.8.8s.4.8.8.8.8-.3.8-.8-.3-.8-.8-.8zm-12.9 3.2c-.5 0-.8.4-.8.8 0 .5.4.8.8.8s.8-.3.8-.8c0-.4-.4-.8-.8-.8zm-9.7 0c-.5 0-.8.4-.8.8s.3.8.8.8.8-.4.8-.8-.4-.8-.8-.8zm3.2 0c-.5 0-.8.4-.8.8s.3.8.8.8.8-.4.8-.8-.4-.8-.8-.8zm3.2 0c-.4 0-.8.4-.8.8s.4.8.8.8c.5 0 .8-.4.8-.8s-.3-.8-.8-.8zm6.5 0c-.5 0-.8.4-.8.8s.3.8.8.8.8-.4.8-.8-.3-.8-.8-.8zm3.2 0c-.5 0-.8.4-.8.8s.4.8.8.8.8-.4.8-.8-.3-.8-.8-.8zm3.2 0c-.4 0-.8.4-.8.8s.4.8.8.8c.5 0 .9-.4.9-.8s-.4-.8-.9-.8zm3.3 0c-.5 0-.8.4-.8.8s.4.8.8.8.8-.4.8-.8-.3-.8-.8-.8zm3.2 0c-.5 0-.8.4-.8.8s.3.8.8.8.8-.4.8-.8-.3-.8-.8-.8zm3.3 0c-.5 0-.8.4-.8.8s.4.8.8.8.8-.4.8-.8-.4-.8-.8-.8zm6.4 0c-.5 0-.8.4-.8.8s.3.8.8.8.8-.4.8-.8-.3-.8-.8-.8zm3.3 0c-.5 0-.8.4-.8.8s.4.8.8.8.8-.4.8-.8c-.1-.4-.4-.8-.8-.8zm3.2 0c-.5 0-.8.4-.8.8s.4.8.8.8.8-.4.8-.8-.4-.8-.8-.8zm3.2 0c-.5 0-.8.4-.8.8s.4.8.8.8.8-.4.8-.8-.3-.8-.8-.8zm-35.5 3.2c-.5 0-.8.4-.8.8s.4.8.8.8.8-.4.8-.8-.4-.8-.8-.8zm38.7 0c-.5 0-.8.4-.8.8s.4.8.8.8.8-.4.8-.8-.3-.8-.8-.8zm3.3 0c-.5 0-.8.4-.8.8s.3.8.8.8.8-.4.8-.8-.4-.8-.8-.8zm-48.5 0c-.5 0-.8.4-.8.8s.3.8.8.8.8-.4.8-.8-.4-.8-.8-.8zm3.2 0c-.4 0-.8.4-.8.8s.4.8.8.8c.5 0 .8-.4.8-.8s-.3-.8-.8-.8zm6.5 0c-.5 0-.8.4-.8.8s.3.8.8.8.8-.4.8-.8-.3-.8-.8-.8zm3.2 0c-.5 0-.8.4-.8.8s.4.8.8.8.8-.4.8-.8-.3-.8-.8-.8zm3.2 0c-.4 0-.8.4-.8.8s.4.8.8.8c.5 0 .9-.4.9-.8s-.4-.8-.9-.8zm3.3 0c-.5 0-.8.4-.8.8s.4.8.8.8.8-.4.8-.8-.3-.8-.8-.8zm3.2 0c-.5 0-.8.4-.8.8s.3.8.8.8.8-.4.8-.8-.3-.8-.8-.8zm3.3 0c-.5 0-.8.4-.8.8s.4.8.8.8.8-.4.8-.8-.4-.8-.8-.8zm3.2 0c-.4 0-.8.4-.8.8s.4.8.8.8c.5 0 .8-.4.8-.8s-.4-.8-.8-.8zm3.2 0c-.5 0-.8.4-.8.8s.3.8.8.8.8-.4.8-.8-.3-.8-.8-.8zm3.3 0c-.5 0-.8.4-.8.8s.4.8.8.8.8-.4.8-.8c-.1-.4-.4-.8-.8-.8zm3.2 0c-.5 0-.8.4-.8.8s.4.8.8.8.8-.4.8-.8-.4-.8-.8-.8zm3.2 0c-.5 0-.8.4-.8.8s.4.8.8.8.8-.4.8-.8-.3-.8-.8-.8zm-35.5 3.3c-.5 0-.8.4-.8.8 0 .5.4.8.8.8s.8-.4.8-.8c0-.5-.4-.8-.8-.8zm38.7 0c-.5 0-.8.4-.8.8 0 .5.4.8.8.8s.8-.4.8-.8c0-.5-.3-.8-.8-.8zm3.3 0c-.5 0-.8.4-.8.8 0 .5.3.8.8.8s.8-.4.8-.8c0-.5-.4-.8-.8-.8zm-48.5 0c-.5 0-.8.4-.8.8 0 .5.3.8.8.8s.8-.3.8-.8-.4-.8-.8-.8zm3.2 0c-.4 0-.8.4-.8.8 0 .5.4.8.8.8.5 0 .8-.3.8-.8s-.3-.8-.8-.8zm6.5 0c-.5 0-.8.4-.8.8 0 .5.3.8.8.8s.8-.4.8-.8c0-.5-.3-.8-.8-.8zm3.2 0c-.5 0-.8.4-.8.8 0 .5.4.8.8.8s.8-.4.8-.8c0-.5-.3-.8-.8-.8zm3.2 0c-.4 0-.8.4-.8.8 0 .5.4.8.8.8.5 0 .9-.4.9-.8 0-.5-.4-.8-.9-.8zm3.3 0c-.5 0-.8.4-.8.8 0 .5.4.8.8.8s.8-.4.8-.8c0-.5-.3-.8-.8-.8zm3.2 0c-.5 0-.8.4-.8.8 0 .5.3.8.8.8s.8-.4.8-.8c0-.5-.3-.8-.8-.8zm3.3 0c-.5 0-.8.4-.8.8 0 .5.4.8.8.8s.8-.4.8-.8c0-.5-.4-.8-.8-.8zm3.2 0c-.4 0-.8.4-.8.8 0 .5.4.8.8.8.5 0 .8-.4.8-.8 0-.5-.4-.8-.8-.8zm3.2 0c-.5 0-.8.4-.8.8 0 .5.3.8.8.8s.8-.4.8-.8c0-.5-.3-.8-.8-.8zm3.3 0c-.5 0-.8.4-.8.8 0 .5.4.8.8.8s.8-.4.8-.8c-.1-.5-.4-.8-.8-.8zm3.2 0c-.5 0-.8.4-.8.8 0 .5.4.8.8.8s.8-.4.8-.8c0-.5-.4-.8-.8-.8zm3.2 0c-.5 0-.8.4-.8.8 0 .5.4.8.8.8s.8-.4.8-.8c0-.5-.3-.8-.8-.8zm-35.5 3.2c-.5 0-.8.3-.8.8s.4.8.8.8.8-.3.8-.8-.4-.8-.8-.8zm38.7 0c-.5 0-.8.3-.8.8s.4.8.8.8.8-.4.8-.8c0-.5-.3-.8-.8-.8zm3.3 0c-.5 0-.8.3-.8.8s.3.8.8.8.8-.4.8-.8c0-.5-.4-.8-.8-.8zm3.2 0c-.5 0-.8.3-.8.8s.4.8.8.8.8-.4.8-.8c0-.5-.4-.8-.8-.8zm-48.5 0c-.4 0-.8.3-.8.8s.4.8.8.8c.5 0 .8-.3.8-.8s-.3-.8-.8-.8zm6.5 0c-.5 0-.8.3-.8.8s.3.8.8.8.8-.4.8-.8c0-.5-.3-.8-.8-.8zm3.2 0c-.5 0-.8.3-.8.8s.4.8.8.8.8-.4.8-.8c0-.5-.3-.8-.8-.8zm3.2 0c-.4 0-.8.3-.8.8s.4.8.8.8c.5 0 .9-.4.9-.8 0-.5-.4-.8-.9-.8zm3.3 0c-.5 0-.8.3-.8.8s.4.8.8.8.8-.4.8-.8c0-.5-.3-.8-.8-.8zm3.2 0c-.5 0-.8.3-.8.8s.3.8.8.8.8-.4.8-.8c0-.5-.3-.8-.8-.8zm3.3 0c-.5 0-.8.3-.8.8s.4.8.8.8.8-.4.8-.8c0-.5-.4-.8-.8-.8zm3.2 0c-.4 0-.8.3-.8.8s.4.8.8.8c.5 0 .8-.4.8-.8 0-.5-.4-.8-.8-.8zm3.2 0c-.5 0-.8.3-.8.8s.3.8.8.8.8-.4.8-.8c0-.5-.3-.8-.8-.8zm3.3 0c-.5 0-.8.3-.8.8s.4.8.8.8.8-.4.8-.8c-.1-.5-.4-.8-.8-.8zm3.2 0c-.5 0-.8.3-.8.8s.4.8.8.8.8-.4.8-.8c0-.5-.4-.8-.8-.8zm3.2 0c-.5 0-.8.3-.8.8s.4.8.8.8.8-.4.8-.8c0-.5-.3-.8-.8-.8zm-35.5 3.2c-.5 0-.8.3-.8.8s.4.8.8.8.8-.3.8-.8c0-.4-.4-.8-.8-.8zm38.7 0c-.5 0-.8.4-.8.8s.4.8.8.8.8-.4.8-.8-.3-.8-.8-.8zm3.3 0c-.5 0-.8.4-.8.8s.3.8.8.8.8-.4.8-.8-.4-.8-.8-.8zm3.2 0c-.5 0-.8.4-.8.8s.4.8.8.8.8-.4.8-.8-.4-.8-.8-.8zm3.2 0c-.4 0-.8.4-.8.8s.4.8.8.8c.5 0 .8-.4.8-.8s-.3-.8-.8-.8zm-51.7 0c-.4 0-.8.4-.8.8s.4.8.8.8c.5 0 .8-.4.8-.8s-.3-.8-.8-.8zm6.5 0c-.5 0-.8.4-.8.8s.3.8.8.8.8-.4.8-.8-.3-.8-.8-.8zm3.2 0c-.5 0-.8.4-.8.8s.4.8.8.8.8-.4.8-.8-.3-.8-.8-.8zm3.2 0c-.4 0-.8.4-.8.8s.4.8.8.8c.5 0 .9-.4.9-.8s-.4-.8-.9-.8zm3.3 0c-.5 0-.8.4-.8.8s.4.8.8.8.8-.4.8-.8-.3-.8-.8-.8zm3.2 0c-.5 0-.8.4-.8.8s.3.8.8.8.8-.4.8-.8-.3-.8-.8-.8zm3.3 0c-.5 0-.8.4-.8.8s.4.8.8.8.8-.4.8-.8-.4-.8-.8-.8zm3.2 0c-.4 0-.8.4-.8.8s.4.8.8.8c.5 0 .8-.4.8-.8s-.4-.8-.8-.8zm3.2 0c-.5 0-.8.4-.8.8s.3.8.8.8.8-.4.8-.8-.3-.8-.8-.8zm3.3 0c-.5 0-.8.4-.8.8s.4.8.8.8.8-.4.8-.8c-.1-.4-.4-.8-.8-.8zm3.2 0c-.5 0-.8.4-.8.8s.4.8.8.8.8-.4.8-.8-.4-.8-.8-.8zm3.2 0c-.5 0-.8.4-.8.8s.4.8.8.8.8-.4.8-.8-.3-.8-.8-.8zm-35.5 3.2c-.5 0-.8.4-.8.8s.4.8.8.8.8-.4.8-.8-.4-.8-.8-.8zm38.7 0c-.5 0-.8.4-.8.8s.4.8.8.8.8-.4.8-.8-.3-.8-.8-.8zm3.3 0c-.5 0-.8.4-.8.8s.3.8.8.8.8-.4.8-.8-.4-.8-.8-.8zm3.2 0c-.5 0-.8.4-.8.8s.4.8.8.8.8-.4.8-.8-.4-.8-.8-.8zm3.2 0c-.4 0-.8.4-.8.8s.4.8.8.8c.5 0 .8-.4.8-.8s-.3-.8-.8-.8zm-51.7 0c-.4 0-.8.4-.8.8s.4.8.8.8c.5 0 .8-.4.8-.8s-.3-.8-.8-.8zm6.5 0c-.5 0-.8.4-.8.8s.3.8.8.8.8-.4.8-.8-.3-.8-.8-.8zm3.2 0c-.5 0-.8.4-.8.8s.4.8.8.8.8-.4.8-.8-.3-.8-.8-.8zm3.2 0c-.4 0-.8.4-.8.8s.4.8.8.8c.5 0 .9-.4.9-.8s-.4-.8-.9-.8zm3.3 0c-.5 0-.8.4-.8.8s.4.8.8.8.8-.4.8-.8-.3-.8-.8-.8zm3.2 0c-.5 0-.8.4-.8.8s.3.8.8.8.8-.4.8-.8-.3-.8-.8-.8zm3.3 0c-.5 0-.8.4-.8.8s.4.8.8.8.8-.4.8-.8-.4-.8-.8-.8zm3.2 0c-.4 0-.8.4-.8.8s.4.8.8.8c.5 0 .8-.4.8-.8s-.4-.8-.8-.8zm3.2 0c-.5 0-.8.4-.8.8s.3.8.8.8.8-.4.8-.8-.3-.8-.8-.8zm3.3 0c-.5 0-.8.4-.8.8s.4.8.8.8.8-.4.8-.8c-.1-.4-.4-.8-.8-.8zm3.2 0c-.5 0-.8.4-.8.8s.4.8.8.8.8-.4.8-.8-.4-.8-.8-.8zm3.2 0c-.5 0-.8.4-.8.8s.4.8.8.8.8-.4.8-.8-.3-.8-.8-.8zm16.2 3.2c-.5 0-.8.4-.8.8 0 .5.3.8.8.8s.8-.4.8-.8-.4-.8-.8-.8zm-51.7.1c-.5 0-.8.4-.8.8 0 .5.4.8.8.8s.8-.4.8-.8c0-.5-.4-.8-.8-.8zm38.7 0c-.5 0-.8.4-.8.8s.4.8.8.8.8-.3.8-.8-.3-.8-.8-.8zm3.3 0c-.5 0-.8.4-.8.8s.3.8.8.8.8-.3.8-.8-.4-.8-.8-.8zm3.2 0c-.5 0-.8.4-.8.8s.4.8.8.8.8-.3.8-.8-.4-.8-.8-.8zm3.2 0c-.4 0-.8.4-.8.8s.4.8.8.8c.5 0 .8-.3.8-.8s-.3-.8-.8-.8zm-54.9 0c-.5 0-.8.3-.8.8s.3.8.8.8.8-.4.8-.8-.4-.8-.8-.8zm3.2 0c-.4 0-.8.3-.8.8s.4.8.8.8c.5 0 .8-.4.8-.8s-.3-.8-.8-.8zm6.5 0c-.5 0-.8.4-.8.8 0 .5.3.8.8.8s.8-.3.8-.8c0-.4-.3-.8-.8-.8zm3.2 0c-.5 0-.8.4-.8.8 0 .5.4.8.8.8s.8-.3.8-.8c0-.4-.3-.8-.8-.8zm3.2 0c-.4 0-.8.4-.8.8 0 .5.4.8.8.8.5 0 .9-.3.9-.8 0-.4-.4-.8-.9-.8zm3.3 0c-.5 0-.8.4-.8.8 0 .5.4.8.8.8s.8-.3.8-.8c0-.4-.3-.8-.8-.8zm3.2 0c-.5 0-.8.4-.8.8 0 .5.3.8.8.8s.8-.3.8-.8c0-.4-.3-.8-.8-.8zm3.3 0c-.5 0-.8.4-.8.8 0 .5.4.8.8.8s.8-.3.8-.8c0-.4-.4-.8-.8-.8zm3.2 0c-.4 0-.8.4-.8.8 0 .5.4.8.8.8.5 0 .8-.3.8-.8 0-.4-.4-.8-.8-.8zm3.2 0c-.5 0-.8.4-.8.8 0 .5.3.8.8.8s.8-.3.8-.8c0-.4-.3-.8-.8-.8zm3.3 0c-.5 0-.8.4-.8.8 0 .5.4.8.8.8s.8-.3.8-.8c-.1-.4-.4-.8-.8-.8zm3.2 0c-.5 0-.8.4-.8.8 0 .5.4.8.8.8s.8-.3.8-.8c0-.4-.4-.8-.8-.8zm3.2 0c-.5 0-.8.4-.8.8 0 .5.4.8.8.8s.8-.3.8-.8c0-.4-.3-.8-.8-.8zm16.2 3.2c-.5 0-.8.4-.8.8s.3.8.8.8.8-.3.8-.8-.4-.8-.8-.8zm-9.7 0c-.5 0-.8.4-.8.8s.3.8.8.8.8-.3.8-.8-.4-.8-.8-.8zm3.2 0c-.5 0-.8.4-.8.8s.4.8.8.8.8-.3.8-.8-.4-.8-.8-.8zm3.2 0c-.4 0-.8.4-.8.8s.4.8.8.8c.5 0 .8-.3.8-.8s-.3-.8-.8-.8zm-38.8 0c-.4 0-.8.4-.8.8s.4.8.8.8c.5 0 .9-.3.9-.8s-.4-.8-.9-.8zm3.3 0c-.5 0-.8.4-.8.8s.4.8.8.8.8-.3.8-.8-.3-.8-.8-.8zm3.2 0c-.5 0-.8.4-.8.8s.3.8.8.8.8-.3.8-.8-.3-.8-.8-.8zm3.3 0c-.5 0-.8.4-.8.8s.4.8.8.8.8-.3.8-.8-.4-.8-.8-.8zm3.2 0c-.4 0-.8.4-.8.8s.4.8.8.8c.5 0 .8-.3.8-.8s-.4-.8-.8-.8zm3.2 0c-.5 0-.8.4-.8.8s.3.8.8.8.8-.3.8-.8-.3-.8-.8-.8zm3.3 0c-.5 0-.8.4-.8.8s.4.8.8.8.8-.3.8-.8-.4-.8-.8-.8zm3.2 0c-.5 0-.8.4-.8.8s.4.8.8.8.8-.3.8-.8-.4-.8-.8-.8zm19.4 3.2c-.5 0-.8.4-.8.8s.3.8.8.8.8-.3.8-.8-.4-.8-.8-.8zm-35.6.1c-.5 0-.8.4-.8.8s.3.8.8.8.8-.4.8-.8-.3-.8-.8-.8zm3.3 0c-.5 0-.8.4-.8.8s.4.8.8.8.8-.4.8-.8-.4-.8-.8-.8zm3.2 0c-.4 0-.8.4-.8.8s.4.8.8.8c.5 0 .8-.4.8-.8s-.4-.8-.8-.8z" clip-rule="evenodd"></path></g></svg>