<svg xmlns="http://www.w3.org/2000/svg" viewBox="0 0 32 32" id="lari"><g><circle cx="16" cy="16" r="13" fill="#fdc019"></circle><path fill="#fd9f0f" d="M16 3a13 13 0 0 1 0 26Z"></path><path fill="#fef6e3" d="M19 8.596V7a1 1 0 0 0-2 0v1.071A7.895 7.895 0 0 0 16 8a8.008 8.008 0 0 0-1 .07V7a1 1 0 0 0-2 0v1.589a7.966 7.966 0 0 0-3.19 12.45A.986.986 0 0 0 9 22a1 1 0 0 0 1 1h12a1 1 0 0 0 0-2h-9.293A5.93 5.93 0 0 1 10 16a5.998 5.998 0 0 1 3-5.188V15a1 1 0 0 0 2 0v-4.91a5.994 5.994 0 0 1 1-.09 5.918 5.918 0 0 1 1 .092V15a1 1 0 0 0 2 0v-4.18a5.98 5.98 0 0 1 2.93 4.32 1 1 0 0 0 1.98-.28A8.009 8.009 0 0 0 19 8.596Z"></path><path d="M26.24 25a1 1 0 0 1-.786-1.618A11.829 11.829 0 0 0 28 16 11.995 11.995 0 0 0 8.34 6.769 1 1 0 0 1 7.06 5.231 13.995 13.995 0 0 1 30 16a13.81 13.81 0 0 1-2.974 8.618.999.999 0 0 1-.786.382zM16 30A14.016 14.016 0 0 1 2 16a13.81 13.81 0 0 1 2.974-8.618 1 1 0 0 1 1.572 1.236A11.829 11.829 0 0 0 4 16a11.995 11.995 0 0 0 19.66 9.231 1 1 0 1 1 1.279 1.538A14.013 14.013 0 0 1 16 30z"></path></g></svg>