<svg xmlns="http://www.w3.org/2000/svg" width="64" height="64" id="log-in"><path fill="#767df5" d="M63.212 1C61.42.996 37.699.838 37.697.996c.139 1.02.225 11.402.225 11.402.057 1.098 13.142.12 14.578.483.008-.187.301 39.868.301 39.868l-15.293.234s.169 9.771.184 9.746c.08.242 25.459 1.349 25.596.376-.379-.116-.274-61.666-.076-62.105zm-2.548 60.597c-.934.282-20.395-.365-20.562-.566-.109.379-.143-6.312-.143-6.312s14.085.35 14.743.273c0 0 .33-44.879.053-44.851.326-.052-15.008-.634-14.758-.005-.088-.784-.092-6.23-.139-6.642.102-1.155 20.602-.207 20.955.061-.166.252-.157 53.05-.149 58.042zm-13.23-28.983C45.752 32.24 13.958 7.721 13.693 6.285c.13 1.386 2.021 14.561 2.452 15.383-1.019-.001-13.64.877-15.038.471C.713 24.207.713 43.123.713 43.123s15.093.266 15.455.037c.223.561-1.602 10.947-2.166 14.773 4.879-3.001 31.922-24.272 33.432-25.319zM3.515 40.619c-.351.463.143-16.328.339-15.504-.091.292 15.304-.634 15.135-.076.481-.447-2.336-12.362-1.707-12.326-.544-.02 26.529 20.439 26.652 20.42-.708-.491-26.774 20.001-26.98 19.449-.251.305 2.002-11.369 1.833-11.946-.478.155-15.202.199-15.272-.017z"></path><path fill="#0d104d" d="M63.212.574C61.42.57 37.699.413 37.697.57c.139 1.02.225 11.402.225 11.402.057 1.098 13.142.121 14.578.483.008-.186.301 39.868.301 39.868l-15.293.234s.169 9.771.184 9.746c.08.242 25.459 1.349 25.596.377-.379-.116-.274-61.666-.076-62.106zm-2.548 60.598c-.934.281-20.395-.366-20.562-.566-.109.379-.143-6.313-.143-6.313s14.085.35 14.743.274c0 0 .33-44.88.053-44.851.326-.053-15.008-.635-14.758-.005-.087-.784-.091-6.231-.138-6.641.102-1.156 20.602-.208 20.955.061-.167.25-.158 53.05-.15 58.041zm-13.23-28.984c-1.682-.374-33.476-24.892-33.741-26.329.13 1.386 2.021 14.562 2.452 15.383-1.019 0-13.64.877-15.038.471C.713 23.781.713 42.697.713 42.697s15.093.266 15.455.037c.223.562-1.602 10.947-2.166 14.773 4.879-3.001 31.922-24.271 33.432-25.319zM3.515 40.193c-.351.464.143-16.328.339-15.504-.091.292 15.304-.633 15.135-.076.481-.447-2.336-12.362-1.707-12.326-.544-.02 26.529 20.439 26.652 20.42-.708-.49-26.774 20.001-26.98 19.45-.251.305 2.002-11.37 1.833-11.946-.478.155-15.202.199-15.272-.018z"></path></svg>